<?xml version="1.0" encoding="utf-8"?>
<!-- Generator: Adobe Illustrator 18.0.0, SVG Export Plug-In . SVG Version: 6.00 Build 0)  -->
<!DOCTYPE svg PUBLIC "-//W3C//DTD SVG 1.1//EN" "http://www.w3.org/Graphics/SVG/1.1/DTD/svg11.dtd">
<svg version="1.1" id="Layer_1" xmlns="http://www.w3.org/2000/svg" xmlns:xlink="http://www.w3.org/1999/xlink" x="0px" y="0px"
	 viewBox="0 0 143.3 144.5" enable-background="new 0 0 143.3 144.5" xml:space="preserve">
<g>
	<circle fill="none" stroke="#D8D2BC" stroke-width="25" stroke-miterlimit="10" cx="72" cy="72.5" r="58.1"/>
	<text transform="matrix(1 0 0 1 42.5951 82.6708)" fill="#1B4B5A" font-family="'Roboto-Regular'" font-size="36">88%</text>
	<path fill="#1B4B5A" d="M107.4,37.8c19,19.4,18.9,50.5-0.3,69.7l12,12c25.8-25.8,25.9-67.8,0.3-93.8L107.4,37.8z"/>
	<path fill="#286C7C" d="M36.9,107.6c-19.3-19.3-19.3-50.8,0-70.1l-12-12c-26,26-26,68.2,0,94.1c0.1,0.1,0.2,0.2,0.4,0.3l12-12
		C37.2,107.8,37.1,107.7,36.9,107.6z"/>
	<path fill="#FFFFFF" d="M37.3,107.9l-12,12c26,25.6,67.9,25.5,93.8-0.3l-12-12C87.8,126.8,56.7,126.9,37.3,107.9z"/>
	<path fill="#1B4B5A" d="M107.1,37.4c0.1,0.1,0.2,0.2,0.3,0.4l12-12c-0.1-0.1-0.2-0.2-0.3-0.4c-26-26-68.2-26-94.1,0l12,12
		C56.3,18.1,87.7,18.1,107.1,37.4z"/>
</g>
</svg>
